<svg xmlns="http://www.w3.org/2000/svg" width="1100" height="720" viewBox="0 0 1100 720" font-family="'JetBrains Mono','Cascadia Code','SF Mono',monospace">
<rect width="1100" height="720" fill="#0a0c10"/>
<g stroke="#1d2530" stroke-width="1" opacity="0.12">
<line x1="0" y1="0" x2="0" y2="720"/>
<line x1="40" y1="0" x2="40" y2="720"/>
<line x1="80" y1="0" x2="80" y2="720"/>
<line x1="120" y1="0" x2="120" y2="720"/>
<line x1="160" y1="0" x2="160" y2="720"/>
<line x1="200" y1="0" x2="200" y2="720"/>
<line x1="240" y1="0" x2="240" y2="720"/>
<line x1="280" y1="0" x2="280" y2="720"/>
<line x1="320" y1="0" x2="320" y2="720"/>
<line x1="360" y1="0" x2="360" y2="720"/>
<line x1="400" y1="0" x2="400" y2="720"/>
<line x1="440" y1="0" x2="440" y2="720"/>
<line x1="480" y1="0" x2="480" y2="720"/>
<line x1="520" y1="0" x2="520" y2="720"/>
<line x1="560" y1="0" x2="560" y2="720"/>
<line x1="600" y1="0" x2="600" y2="720"/>
<line x1="640" y1="0" x2="640" y2="720"/>
<line x1="680" y1="0" x2="680" y2="720"/>
<line x1="720" y1="0" x2="720" y2="720"/>
<line x1="760" y1="0" x2="760" y2="720"/>
<line x1="800" y1="0" x2="800" y2="720"/>
<line x1="840" y1="0" x2="840" y2="720"/>
<line x1="880" y1="0" x2="880" y2="720"/>
<line x1="920" y1="0" x2="920" y2="720"/>
<line x1="960" y1="0" x2="960" y2="720"/>
<line x1="1000" y1="0" x2="1000" y2="720"/>
<line x1="1040" y1="0" x2="1040" y2="720"/>
<line x1="1080" y1="0" x2="1080" y2="720"/>
<line x1="0" y1="0" x2="1100" y2="0"/>
<line x1="0" y1="40" x2="1100" y2="40"/>
<line x1="0" y1="80" x2="1100" y2="80"/>
<line x1="0" y1="120" x2="1100" y2="120"/>
<line x1="0" y1="160" x2="1100" y2="160"/>
<line x1="0" y1="200" x2="1100" y2="200"/>
<line x1="0" y1="240" x2="1100" y2="240"/>
<line x1="0" y1="280" x2="1100" y2="280"/>
<line x1="0" y1="320" x2="1100" y2="320"/>
<line x1="0" y1="360" x2="1100" y2="360"/>
<line x1="0" y1="400" x2="1100" y2="400"/>
<line x1="0" y1="440" x2="1100" y2="440"/>
<line x1="0" y1="480" x2="1100" y2="480"/>
<line x1="0" y1="520" x2="1100" y2="520"/>
<line x1="0" y1="560" x2="1100" y2="560"/>
<line x1="0" y1="600" x2="1100" y2="600"/>
<line x1="0" y1="640" x2="1100" y2="640"/>
<line x1="0" y1="680" x2="1100" y2="680"/>
<line x1="0" y1="720" x2="1100" y2="720"/>
</g>
<text x="44" y="52" fill="#3df2c4" font-size="20">⟡</text>
<text x="74" y="52" fill="#c7d0db" font-size="22" letter-spacing="4">FAY</text>
<text x="204" y="52" fill="#5b6675" font-size="12" letter-spacing="3">COMMAND DECK</text>
<text x="1056" y="52" fill="#5b6675" font-size="13" letter-spacing="2" text-anchor="end">14:08</text>
<text x="44" y="104" fill="#5b6675" font-size="11" letter-spacing="5">SCENES</text>
<rect x="44.0" y="120" width="242" height="92" rx="12" fill="#11161f" stroke="#1d2530"/><text x="60.0" y="154" fill="#3df2c4" font-size="24">◳</text><text x="60.0" y="186" fill="#c7d0db" font-size="14">Focus</text><text x="60.0" y="202" fill="#5b6675" font-size="9.5">Zen maximized on the ASUS main · Discord +…</text>
<rect x="300.5" y="120" width="242" height="92" rx="12" fill="#11161f" stroke="#1d2530"/><text x="316.5" y="154" fill="#3df2c4" font-size="24">◈</text><text x="316.5" y="186" fill="#c7d0db" font-size="14">Game</text><text x="316.5" y="202" fill="#5b6675" font-size="9.5">Game on the ASUS main · side screen quarte…</text>
<rect x="557.0" y="120" width="242" height="92" rx="12" fill="#11161f" stroke="#1d2530"/><text x="573.0" y="154" fill="#3df2c4" font-size="24">⊞</text><text x="573.0" y="186" fill="#c7d0db" font-size="14">Side Stack</text><text x="573.0" y="202" fill="#5b6675" font-size="9.5">Side screen only: quarter Discord, Task Ma…</text>
<text x="44" y="246" fill="#5b6675" font-size="11" letter-spacing="5">APPS</text>
<rect x="44.0" y="262" width="242" height="92" rx="12" fill="#11161f" stroke="#1d2530"/><text x="60.0" y="296" fill="#3df2c4" font-size="20">◯</text><text x="60.0" y="328" fill="#c7d0db" font-size="14">Zen</text>
<rect x="300.5" y="262" width="242" height="92" rx="12" fill="#11161f" stroke="#1d2530"/><text x="316.5" y="296" fill="#3df2c4" font-size="20">✦</text><text x="316.5" y="328" fill="#c7d0db" font-size="14">Discord</text>
<rect x="557.0" y="262" width="242" height="92" rx="12" fill="#11161f" stroke="#1d2530"/><text x="573.0" y="296" fill="#3df2c4" font-size="20">✳</text><text x="573.0" y="328" fill="#c7d0db" font-size="14">Claude</text>
<rect x="813.5" y="262" width="242" height="92" rx="12" fill="#11161f" stroke="#1d2530"/><text x="829.5" y="296" fill="#3df2c4" font-size="20">❖</text><text x="829.5" y="328" fill="#c7d0db" font-size="14">LifeOS</text>
<rect x="44.0" y="368" width="242" height="92" rx="12" fill="#11161f" stroke="#1d2530"/><text x="60.0" y="402" fill="#3df2c4" font-size="20">☏</text><text x="60.0" y="434" fill="#c7d0db" font-size="14">Phone Link</text>
<rect x="300.5" y="368" width="242" height="92" rx="12" fill="#11161f" stroke="#1d2530"/><text x="316.5" y="402" fill="#3df2c4" font-size="20">▸</text><text x="316.5" y="434" fill="#c7d0db" font-size="14">Steam</text>
<rect x="557.0" y="368" width="242" height="92" rx="12" fill="#11161f" stroke="#1d2530"/><text x="573.0" y="402" fill="#3df2c4" font-size="20">▦</text><text x="573.0" y="434" fill="#c7d0db" font-size="14">Task Manager</text>
<line x1="44" y1="680" x2="1056" y2="680" stroke="#1d2530"/>
<text x="44" y="694" fill="#5b6675" font-size="11" letter-spacing="2">ready</text>
<text x="1056" y="694" fill="#5b6675" font-size="11" letter-spacing="2" text-anchor="end">⧉ 2 displays · 5120×1440</text>
</svg>